<svg width="118" height="31" viewBox="0 0 118 31" fill="none" xmlns="http://www.w3.org/2000/svg"><path d="M44.3345 13.6774H54.8187C54.8187 10.5307 52.359 8.8794 49.6535 8.8794C46.7327 8.8794 44.7342 10.6241 44.3345 13.6774ZM49.715 26.0774C44.2423 26.0774 39.7535 22.3075 39.7535 15.5779C39.7535 9.31558 43.6274 5.07839 49.7457 5.07839C55.4028 5.07839 59.4612 9.1598 59.4612 14.8925C59.4612 15.3286 59.4304 16.1075 59.3382 16.8553H44.3038C44.4575 19.8774 46.3637 22.2764 49.6535 22.2764C51.8056 22.2764 53.4044 21.2171 54.173 19.4412H58.9385C57.9547 22.806 55.0031 26.0774 49.715 26.0774ZM4.58103 13.6774H15.0651C15.0651 10.5307 12.6055 8.8794 9.89995 8.8794C6.97916 8.8794 4.98072 10.6241 4.58103 13.6774ZM9.96144 26.0774C4.4888 26.0774 0 22.3075 0 15.5779C0 9.31558 3.87389 5.07839 9.99218 5.07839C15.6493 5.07839 19.7077 9.1598 19.7077 14.8925C19.7077 15.3286 19.6769 16.1075 19.5847 16.8553H4.55029C4.70401 19.8774 6.61021 22.2764 9.89995 22.2764C12.0521 22.2764 13.6509 21.2171 14.4195 19.4412H19.185C18.2011 22.806 15.2496 26.0774 9.96144 26.0774ZM24.7499 31L27.5169 24.7065L19.3387 5.54573H24.3809L29.9458 19.8462L35.7259 5.54573H40.4914L29.4846 31H24.7499ZM72.1589 22.0894C75.7561 22.0894 77.9698 19.0673 77.9698 15.5467C77.9698 12.0261 75.8484 9.06633 72.1589 9.06633C68.4695 9.06633 66.3788 12.0261 66.3788 15.5779C66.3788 19.1296 68.531 22.0894 72.1589 22.0894ZM73.1428 26.0774C70.3757 26.0774 67.9161 25.0181 66.3481 22.6503L66.2559 25.6101H61.8286V0H66.3481V8.53668C67.7931 6.26231 70.4372 5.07839 73.2043 5.07839C79.1688 5.07839 82.5816 9.96985 82.5816 15.5467C82.5816 21.1236 79.1381 26.0774 73.1428 26.0774ZM94.6952 22.1206C98.3538 22.1206 100.537 19.005 100.537 15.4844C100.537 11.6211 98.0771 9.03518 94.7566 9.03518C90.9442 9.03518 89.038 12.0261 89.038 15.5779C89.038 19.7528 91.6821 22.1206 94.6952 22.1206ZM94.6644 26.0774C88.9458 26.0774 84.457 22.2141 84.457 15.5779C84.457 8.94171 89.0688 5.07839 94.8181 5.07839C100.567 5.07839 105.149 8.84824 105.149 15.5779C105.149 21.3106 101.213 26.0774 94.6644 26.0774ZM114.864 25.6101C110.806 25.6101 108.653 23.7095 108.653 19.3477V9.37789H105.794V5.54573H108.653V0.0311558H113.173V5.54573H118V9.37789H113.173V19.3789C113.173 21.3106 114.065 21.7467 115.725 21.7467H118V25.6101H114.864Z" fill="#12031A"></path></svg>